<?xml version="1.0" encoding="iso-8859-1"?>
<!-- Uploaded to: SVG Repo, www.svgrepo.com, Generator: SVG Repo Mixer Tools -->
<svg version="1.1" id="Layer_1" xmlns="http://www.w3.org/2000/svg" xmlns:xlink="http://www.w3.org/1999/xlink" 
	 viewBox="0 0 512.002 512.002" xml:space="preserve">
<rect x="27.231" y="39.064" style="fill:#363640;" width="457.538" height="402.233"/>
<g>
	<path style="fill:#FF6465;" d="M371.878,13.912c5.477,110.267,52.672,190.816,79.027,227.665l-0.226,0.191l31.83,11.329
		l29.49-11.329V13.912H371.878z"/>
	<polygon style="fill:#FF6465;" points="461.76,286.95 435.614,401.513 435.614,441.301 512,441.301 512,401.513 512,286.95 
		488.91,274.628 	"/>
</g>
<path style="opacity:0.1;enable-background:new    ;" d="M371.878,13.912h22.736c5.477,110.267,52.672,190.816,79.027,227.665
	l-0.226,0.191l20.028,7.129l-10.934,4.2l-31.83-11.329l0.226-0.191C424.551,204.727,377.355,124.178,371.878,13.912z"/>
<path style="fill:#D7565A;" d="M394.124,13.911c0,27.782-22.522,50.304-50.304,50.304s-50.304-22.522-50.304-50.304
	C293.515,13.911,394.124,13.911,394.124,13.911z"/>
<polygon style="fill:#FF6465;" points="23.089,274.628 0,286.95 0,401.513 0,441.301 76.386,441.301 76.386,401.513 50.24,286.95 
	"/>
<polygon style="opacity:0.1;enable-background:new    ;" points="50.24,286.95 23.089,274.628 12.64,280.205 27.504,286.95 
	53.65,401.513 53.65,441.301 76.386,441.301 76.386,401.513 "/>
<path style="fill:#FF6465;" d="M61.321,241.768l-0.226-0.191c26.354-36.85,73.55-117.398,79.027-227.665H0v227.856l29.491,11.329
	L61.321,241.768z"/>
<path style="opacity:0.1;enable-background:new    ;" d="M140.122,13.912h-22.736c-5.477,110.267-52.672,190.816-79.027,227.665
	l0.226,0.191l-20.028,7.129l10.934,4.2l31.83-11.329l-0.226-0.191C87.449,204.727,134.645,124.178,140.122,13.912z"/>
<path style="fill:#FFD782;" d="M61.321,241.768c12.476,0,22.59,10.114,22.59,22.59l0,0c0,12.476-10.114,22.59-22.59,22.59H0v-45.182
	h61.321V241.768z"/>
<path style="opacity:0.1;enable-background:new    ;" d="M61.321,241.768H38.585c12.476,0,22.592,10.114,22.592,22.592l0,0
	c0,12.476-10.114,22.592-22.592,22.592h22.736c12.476,0,22.592-10.114,22.592-22.592l0,0
	C83.912,251.883,73.797,241.768,61.321,241.768z"/>
<polygon style="opacity:0.1;enable-background:new    ;" points="461.76,286.95 488.91,274.628 499.36,280.205 484.496,286.95 
	458.35,401.513 458.35,441.301 435.614,441.301 435.614,401.513 "/>
<path style="fill:#D7565A;" d="M117.876,13.911c0,27.782,22.522,50.304,50.304,50.304s50.304-22.522,50.304-50.304
	C218.485,13.911,117.876,13.911,117.876,13.911z"/>
<rect y="401.509" style="fill:#C89173;" width="512.002" height="96.582"/>
<path style="fill:#FF6465;" d="M317.342,13.911c0,33.878-27.464,61.342-61.342,61.342s-61.342-27.464-61.342-61.342
	C194.658,13.911,317.342,13.911,317.342,13.911z"/>
<path style="fill:#FFD782;" d="M450.679,241.768c-12.476,0-22.59,10.114-22.59,22.59l0,0c0,12.476,10.114,22.59,22.59,22.59H512
	v-45.182h-61.321V241.768z"/>
<path style="opacity:0.1;enable-background:new    ;" d="M450.679,241.768h22.736c-12.476,0-22.592,10.114-22.592,22.592l0,0
	c0,12.476,10.114,22.592,22.592,22.592h-22.736c-12.476,0-22.592-10.114-22.592-22.592l0,0
	C428.088,251.883,438.202,241.768,450.679,241.768z"/>
<rect y="401.509" style="fill:#E0A381;" width="512.002" height="26.09"/>
</svg>