<?xml version="1.0" encoding="iso-8859-1"?>
<!-- Uploaded to: SVG Repo, www.svgrepo.com, Generator: SVG Repo Mixer Tools -->
<svg version="1.1" id="Layer_1" xmlns="http://www.w3.org/2000/svg" xmlns:xlink="http://www.w3.org/1999/xlink" 
	 viewBox="0 0 503.661 503.661" xml:space="preserve">
<rect x="6" y="436.431" style="fill:#E9B526;" width="496" height="36"/>
<g>
	<path style="fill:#FFC52F;" d="M294,144.431v165.2l0,0c0,26.4,24,47.6,48,47.6v-0.8h103.6c26.4,0,48.4,22.4,48.4,49.2v35.2H18
		v-35.2c0-26.4,24.4-49.2,51.2-49.2h101.2l0,0c24,0,48-20.4,48-46.8l0,0v-165.2H294z"/>
	<path style="fill:#FFC52F;" d="M296.8,144.431c14.8-12,24.4-30.4,24.4-50.4c0-35.2-28.8-64.4-64-64.4s-64,28.8-64,64.4
		c0,20.4,9.6,38.4,24.4,50.4H296.8z"/>
</g>
<circle style="fill:#F4EFEF;" cx="256.8" cy="93.631" r="28"/>
<path d="M500,478.431H4c-2.4,0-4-1.6-4-4v-36c0-2.4,1.6-4,4-4h446c2.4,0,4,1.6,4,4s-1.6,4-4,4H8v28h488v-28h-4c-2.4,0-4-1.6-4-4v-34
	c0-24-18.4-42-42.4-42H340.8c-25.2,0-53.2-21.6-53.2-53.2v-166c0-1.2,0.8-2.4,1.6-3.2c16-11.6,24.8-28.8,24.8-46.8
	c0-33.6-26-60-58.8-60c-33.2,0-59.2,26.4-59.2,60c0,20.4,7.6,36.4,21.6,46.8c1.2,0.8,1.6,2,1.6,3.2v170c0,30.8-20.4,49.2-54.8,49.2
	c-2.4,0-4-1.6-4-4s1.6-4,4-4c30.4,0,46.8-14.4,46.8-41.2v-168c-15.2-12-23.2-30-23.2-52c0-37.6,30-68,67.2-68
	c37.6,0,66.8,30,66.8,68c0,20-9.6,38.8-26.8,52v164c0,26.4,23.6,45.2,45.2,45.2h104.8c28.8,0,50.4,21.6,50.4,50v30h4
	c2.4,0,4,1.6,4,4v36C504,476.831,502.4,478.431,500,478.431z M256.8,125.231c-17.6,0-32-14.4-32-32s14.4-32,32-32s32,14.4,32,32
	S274.4,125.231,256.8,125.231z M256.8,69.631c-13.2,0-24,10.8-24,24s10.8,24,24,24s24-10.8,24-24S270,69.631,256.8,69.631z"/>
<path d="M16,440.431c-2.4,0-4-1.6-4-4v-31.2c0-27.2,26.4-51.2,56.4-51.2H282c2.4,0,4,1.6,4,4s-1.6,4-4,4H68.4
	c-22.8,0-48.4,17.6-48.4,43.2v31.2C20,438.831,18.4,440.431,16,440.431z"/>
</svg>